# xmcd
#
# Track frame offsets: 
#        150
#        21949
#        46431
#        66581
#        109813
#        132387
#        154587
#        180851
#        201836
#        213682
#        242389
#        263573
#
# Disc length: 3847 seconds
#
# Revision: 0
# Processed by: cddbd v1.5.2PL0 Copyright (c) Steve Scherf et al.
# Submitted via: ExactAudioCopy v0.99pb5
#
DISCID=a80f050c
DTITLE=Dave Meniketti - On The Blue Side
DYEAR=1998
DGENRE=Blues
TTITLE0=Man's World
TTITLE1=Angel On My Shoulder
TTITLE2=Cant Do Nothin' Right
TTITLE3=Loan Me A Dime
TTITLE4=Until The Next Time
TTITLE5=Just Coastin'
TTITLE6=Bad Feeling
TTITLE7=Say Goodbye
TTITLE8=Parchman Farm
TTITLE9=Take It Like A Man
TTITLE10=Baby Blues
TTITLE11=Mister Blister
EXTD=
EXTT0=
EXTT1=
EXTT2=
EXTT3=
EXTT4=
EXTT5=
EXTT6=
EXTT7=
EXTT8=
EXTT9=
EXTT10=
EXTT11=
PLAYORDER=
